<svg width="40" height="40" viewBox="0 0 40 40" fill="none" xmlns="http://www.w3.org/2000/svg">
<rect x="40" y="40" width="40" height="40" rx="20" transform="rotate(-180 40 40)" fill="#B8FF01"/>
<path d="M13.3333 20L12.803 19.4697L12.2727 20L12.803 20.5303L13.3333 20ZM25.8333 20.75C26.2475 20.75 26.5833 20.4142 26.5833 20C26.5833 19.5858 26.2475 19.25 25.8333 19.25V20.75ZM17.803 14.4697L12.803 19.4697L13.8636 20.5303L18.8636 15.5303L17.803 14.4697ZM12.803 20.5303L17.803 25.5303L18.8636 24.4697L13.8636 19.4697L12.803 20.5303ZM13.3333 20.75L25.8333 20.75V19.25L13.3333 19.25V20.75Z" fill="black"/>
</svg>
