<svg width="25" height="25" viewBox="0 0 25 25" fill="none" xmlns="http://www.w3.org/2000/svg">
<path d="M12.9557 22.4375H12.0443C9.54607 22.4375 7.77035 22.4354 6.42347 22.2549C5.10447 22.0782 4.34896 21.7472 3.80086 21.1991C3.25263 20.6509 2.9217 19.8953 2.74502 18.5786C2.56461 17.2341 2.5625 15.463 2.5625 12.974V12.0443C2.5625 9.54623 2.56458 7.77005 2.74402 6.4227C2.91971 5.10345 3.24882 4.34758 3.79281 3.79979C4.34112 3.25203 5.09457 2.92156 6.41208 2.74505C7.75894 2.56461 9.53686 2.5625 12.0443 2.5625H12.9557C15.4585 2.5625 17.2365 2.56461 18.5846 2.74506C19.9041 2.9217 20.6594 3.25247 21.2074 3.8C21.7514 4.34789 22.0804 5.10389 22.256 6.42063C22.4354 7.76559 22.4375 9.53714 22.4375 12.026V12.9557C22.4375 15.4538 22.4354 17.23 22.256 18.5773C22.0803 19.8962 21.7513 20.652 21.2076 21.1998C20.6593 21.7478 19.9058 22.0784 18.5879 22.2549C17.2411 22.4354 15.4631 22.4375 12.9557 22.4375Z" stroke="black" stroke-width="2"/>
<path d="M13.128 17.1875C8.32341 17.1875 5.58294 13.9616 5.46875 8.59375H7.87545C7.9545 12.5336 9.72878 14.2025 11.1342 14.5466V8.59375H13.4003V11.9917C14.7881 11.8454 16.2462 10.297 16.7381 8.59375H19.0042C18.8189 9.47711 18.4494 10.3135 17.9189 11.0506C17.3884 11.7878 16.7083 12.4098 15.9212 12.8777C16.7998 13.3053 17.5759 13.9105 18.1982 14.6534C18.8205 15.3963 19.2748 16.26 19.5312 17.1875H17.0367C16.8065 16.3819 16.3387 15.6608 15.6918 15.1145C15.0449 14.5682 14.2478 14.221 13.4003 14.1165V17.1875H13.128Z" fill="black"/>
</svg>
