<?xml version="1.0" encoding="UTF-8"?>
<svg id="_Слой_1" data-name="Слой 1" xmlns="http://www.w3.org/2000/svg" viewBox="0 0 492.6 442.2">
  <defs>
    <style>
      .cls-1, .cls-2 {
        stroke-width: 0px;
      }

      .cls-3 {
        fill: none;
        stroke: #000;
        stroke-miterlimit: 10;
        stroke-width: 10px;
      }

      .cls-2 {
        opacity: .97;
      }
    </style>
  </defs>
  <path class="cls-1" d="M0,0l184,.6v87.6l-70.3-.6v83h70.3v83.2h-70.3v188.2H0V0Z"/>
  <path class="cls-1" d="M258.9,170.4l-1.1,18.5c5.7-7.5,11.9-13,18.8-16.7,6.8-3.7,14.3-5.5,22.4-5.5,9.9,0,18.4,2.6,25.6,8,7.2,5.4,11.7,11.4,13.5,18.4,1.8,7,2.7,18.7,2.7,35.3v88.1c0,19-1.1,32.5-3.4,40.6-2.3,8-6.9,14.5-13.9,19.2-7,4.8-15.4,7.2-25.3,7.2-7.9,0-15.2-1.8-21.9-5.5s-12.9-9.2-18.4-16.4l1.7,80.6h-63.7l-1.7-271.6,64.7-.2h0ZM277,231.2c0-12.9-.5-20.8-1.4-23.5-1-2.7-3.6-4.1-7.9-4.1s-6.9,1.6-8.1,4.7c-1.2,3.2-1.8,10.8-1.8,22.9v86.7c0,12.6.6,20.5,1.9,23.7,1.3,3.2,4,4.7,8.2,4.7s6.7-1.4,7.7-4.3c1-2.9,1.5-9.9,1.5-21l-.1-89.8h0Z"/>
  <g>
    <path class="cls-1" d="M216.4,1.2v86.7h-22.3V1.2h22.3Z"/>
    <path class="cls-1" d="M272.4,41.8v17.4c0,6.4-.3,11.1-1,14-.6,3-2,5.8-4.1,8.4s-4.8,4.5-8.1,5.7-7.1,1.9-11.4,1.9c-4.8,0-8.8-.5-12.2-1.6s-5.9-2.6-7.7-4.8c-1.8-2.1-3.2-4.7-3.9-7.7-.8-3-1.2-7.5-1.2-13.6v-18.2c0-6.6.7-11.8,2.1-15.5,1.4-3.7,4-6.7,7.7-8.9s8.5-3.4,14.2-3.4c4.8,0,9,.7,12.5,2.2s6.2,3.3,8.1,5.6c1.9,2.3,3.2,4.7,3.9,7.2.7,2.5,1.1,6.3,1.1,11.3ZM250.7,36.5c0-3.6-.2-5.9-.6-6.9s-1.2-1.4-2.5-1.4-2.1.5-2.6,1.4-.6,3.2-.6,6.9v32.1c0,3.4.2,5.5.6,6.6.4,1,1.3,1.5,2.5,1.5,1.3,0,2.1-.5,2.5-1.4s.6-2.9.6-6l.1-32.8h0Z"/>
    <path class="cls-1" d="M349.3,16.9l-8.6,71h-23.5c-1.3-8.7-2.8-20.1-4.5-34.3-.6,6.2-1.4,12.5-2.4,18.9l-2.4,15.4h-23.5l-9.2-71h18.6c.1,1.9,1.7,15.4,4.7,40.7.2-2.6,1.9-16.2,4.9-40.7h17.9l4.4,40.7c.7-11.9,2.3-25.4,5-40.7h18.6Z"/>
  </g>
  <path class="cls-1" d="M373.9,173v11.3h-22.3v-11.3h22.3ZM373.9,187.6v71h-22.3v-71h22.3Z"/>
  <path class="cls-2" d="M403.7,187.6l-.4,6.3c1.9-2.5,4.1-4.4,6.4-5.7,2.3-1.3,4.8-1.9,7.6-1.9,3.3,0,6.2.9,8.7,2.7,2.4,1.8,4,3.9,4.6,6.2.6,2.3.9,6.3.9,12v29.9c0,6.5-.4,11-1.2,13.8-.8,2.7-2.3,4.9-4.7,6.5-2.4,1.6-5.2,2.4-8.6,2.4-2.7,0-5.2-.6-7.4-1.9-2.3-1.2-4.4-3.1-6.3-5.6v16.3h-21.6v-81.1h22v.1ZM409.8,208.3c0-4.4-.2-7-.5-8s-1.2-1.4-2.7-1.4c-1.4,0-2.3.5-2.8,1.6-.4,1.1-.6,3.7-.6,7.8v29.4c0,4.3.2,7,.6,8s1.4,1.6,2.8,1.6,2.3-.5,2.6-1.5c.3-1,.5-3.4.5-7.2l.1-30.3h0Z"/>
  <path class="cls-1" d="M487.6,224.4h-28v15.4c0,3.2.2,5.3.7,6.2s1.4,1.4,2.7,1.4c1.6,0,2.7-.6,3.3-1.8s.8-3.6.8-7.1v-9.5h20.5v5.2c0,4.4-.3,7.8-.8,10.1-.6,2.3-1.8,4.9-3.9,7.5s-4.6,4.7-7.7,6c-3.1,1.3-7,2-11.8,2s-8.6-.7-12.1-2-6.2-3.1-8.2-5.4c-1.9-2.3-3.3-4.8-4-7.6-.8-2.8-1.1-6.8-1.1-12.1v-20.7c0-6.2.8-11.1,2.5-14.7,1.7-3.6,4.4-6.3,8.2-8.2,3.8-1.9,8.2-2.9,13.2-2.9,6.1,0,11.1,1.2,15,3.5s6.7,5.3,8.3,9.2,2.4,9.1,2.4,16v9.5h0ZM465.9,212.8v-5.2c0-3.7-.2-6-.6-7.1-.4-1.1-1.2-1.6-2.4-1.6-1.5,0-2.4.5-2.8,1.4s-.5,3.4-.5,7.4v5.2h6.3v-.1Z"/>
  <polyline class="cls-3" points="487.6 172 487.6 16.9 373.9 16.9"/>
</svg>